<?xml version="1.0" encoding="UTF-8" standalone="no"?>
<!-- Created with Inkscape (http://www.inkscape.org/) -->

<svg
   version="1.1"
   id="svg26"
   width="5103.8091"
   height="1730.7637"
   viewBox="0 0 5103.8091 1730.7637"
   sodipodi:docname="icon.svg"
   inkscape:version="1.2.2 (b0a8486541, 2022-12-01)"
   xmlns:inkscape="http://www.inkscape.org/namespaces/inkscape"
   xmlns:sodipodi="http://sodipodi.sourceforge.net/DTD/sodipodi-0.dtd"
   xmlns="http://www.w3.org/2000/svg"
   xmlns:svg="http://www.w3.org/2000/svg">
  <defs
     id="defs30" />
  <sodipodi:namedview
     id="namedview28"
     pagecolor="#ffffff"
     bordercolor="#000000"
     borderopacity="0.25"
     inkscape:showpageshadow="2"
     inkscape:pageopacity="0.0"
     inkscape:pagecheckerboard="0"
     inkscape:deskcolor="#d1d1d1"
     showgrid="false"
     inkscape:zoom="0.19256249"
     inkscape:cx="2555.0147"
     inkscape:cy="864.65436"
     inkscape:window-width="3840"
     inkscape:window-height="2137"
     inkscape:window-x="0"
     inkscape:window-y="23"
     inkscape:window-maximized="1"
     inkscape:current-layer="g34">
    <inkscape:page
       x="0"
       y="0"
       id="page32"
       width="5103.8091"
       height="1730.7637" />
  </sodipodi:namedview>
  <g
     id="g34"
     inkscape:groupmode="layer"
     inkscape:label="Page 1"
     transform="matrix(1.3333333,0,0,-1.3333333,-781.43065,3532.0437)">
    <g
       id="g36"
       transform="scale(0.1)">
      <path
         d="m 25548.8,22581.1 c 254.1,1052.6 -123.4,3915.6 -558.9,3909.2 -822.8,12.1 -675.3,-3891.5 -286.7,-5827 -449.2,-125.3 -778.9,-537.4 -778.9,-1026.5 0,-120.7 20.1,-236.8 57.2,-345 -593.4,-275 -1336.5,-502.2 -1820.9,-643.2 -1038.6,-306.2 -3329.3,-2064.7 -3106,-2438.6 400.9,-718.7 3708.1,1361.1 5189.9,2665.4 192.2,-188.1 455.2,-304.2 745.4,-304.2 320.2,0 607.4,141.3 802.7,364.8 535,-376.3 1103.3,-906.3 1467.8,-1255.4 784.4,-746.4 3452.7,-1850.9 3664.8,-1470.6 421.9,706.5 -3032.4,2530.5 -4902.9,3161.8 21.6,84.7 33.2,173.5 33.2,265 0,518.2 -369.9,949.9 -860.1,1045.7 58.4,651.4 233.3,1408.5 353.4,1898.6"
         style="fill:#b3b3b3;fill-opacity:1;fill-rule:evenodd;stroke:none"
         id="path38" />
      <path
         d="m 21058.2,19636.8 c 0,1886.8 1329.1,3463.2 3102.2,3844 -2.8,81.6 -5.1,163.2 -6.8,244.9 -1903.8,-387.4 -3336.4,-2070.8 -3336.4,-4088.9 0,-445.7 69.9,-875 199.3,-1277.7 70.5,43 141.6,84.9 213.2,125.7 -111.5,364.3 -171.5,751.1 -171.5,1152"
         style="fill:#368fcf;fill-opacity:1;fill-rule:evenodd;stroke:none"
         id="path40" />
      <path
         d="m 25872.4,23469 c 1746.5,-400.5 3049.2,-1964.2 3049.2,-3832.2 0,-419.9 -65.8,-824.4 -187.7,-1203.8 72.1,-38.3 144,-77.2 215.5,-116.5 138.3,414.9 213.2,858.9 213.2,1320.3 0,2002.5 -1410.7,3675.6 -3292.4,4079.7 1.9,-82.6 2.7,-165.1 2.2,-247.5"
         style="fill:#368fcf;fill-opacity:1;fill-rule:evenodd;stroke:none"
         id="path42" />
      <path
         d="m 27866.8,16956.8 c -717.8,-770.1 -1741.1,-1251.7 -2876.9,-1251.7 -1155.3,0 -2194.2,498.3 -2913.6,1291.7 -69.2,-43.2 -138.8,-86 -208.6,-128.4 764.4,-861.4 1879.9,-1404.3 3122.2,-1404.3 1226.2,0 2328.8,528.8 3092.3,1370.9 -72.5,39.6 -144.3,80.3 -215.4,121.8"
         style="fill:#368fcf;fill-opacity:1;fill-rule:evenodd;stroke:none"
         id="path44" />
      <path
         d="m 29233.8,16290.8 c -989.6,-1253.5 -2522.8,-2058.1 -4243.9,-2058.1 -1707.9,0 -3230.8,792.3 -4221.1,2029.4 -137.8,-67 -277.1,-130.4 -417.6,-188.9 -75.5,-31.3 -167.8,-68.6 -269.5,-104.6 1117.5,-1492.8 2900,-2459 4908.2,-2459 2038.4,0 3844.3,995.4 4958.2,2526.6 -239,71.7 -479.2,159 -714.3,254.6"
         style="fill:#016199;fill-opacity:1;fill-rule:evenodd;stroke:none"
         id="path46" />
      <path
         d="m 23449.7,19636.8 c 0,636.7 386.3,1183.2 937.3,1417.8 -39.7,242.2 -73.4,487.6 -101.8,733.6 -904.9,-296.2 -1558.6,-1147.5 -1558.6,-2151.4 0,-187.1 22.7,-368.9 65.5,-542.8 231.3,75.1 461.7,155.8 686.4,244.7 -18.9,96.5 -28.8,196.1 -28.8,298.1"
         style="fill:#018ede;fill-opacity:1;fill-rule:evenodd;stroke:none"
         id="path48" />
      <path
         d="m 25487.5,21094.9 c 606.5,-206.9 1042.7,-781.6 1042.7,-1458.1 0,-63.3 -3.8,-125.6 -11.2,-186.7 229.7,-86.8 459,-180.3 686.3,-278.7 31.4,150.2 47.9,305.8 47.9,465.4 0,1031.8 -690.4,1902.3 -1634.5,2174.8 -50.5,-237.9 -95.9,-477.7 -131.2,-716.7"
         style="fill:#018ede;fill-opacity:1;fill-rule:evenodd;stroke:none"
         id="path50" />
      <path
         d="m 26003.5,18477 c -270.8,-236.9 -625.5,-380.5 -1013.6,-380.5 -347.7,0 -668.4,115.2 -926.1,309.5 -189.9,-155.6 -385.5,-307.3 -584.3,-454.9 400.6,-359.2 930,-577.6 1510.4,-577.6 609,0 1161.8,240.5 1568.6,631.7 -180.7,162.7 -365.6,321.8 -555,471.8"
         style="fill:#018ede;fill-opacity:1;fill-rule:evenodd;stroke:none"
         id="path52" />
      <path
         d="m 29789.3,23446.1 c -997.9,1255.5 -2478,2110.5 -4160.3,2284.9 57.4,-242.6 101.8,-494.2 136.6,-745.4 1187.7,-170.7 2250.7,-727.7 3057.5,-1539.5 484.6,-487.6 876.7,-1067.1 1148,-1710.1 h 11938.6 c 981.8,389 1830.9,878.7 2229.6,1710.1 h -14350"
         style="fill:#368fcf;fill-opacity:1;fill-rule:evenodd;stroke:none"
         id="path54" />
      <path
         d="m 30121.1,21337.1 c 181.6,-548.3 275.4,-1132.5 272.8,-1710.1 h 7930.6 c 981.7,389 1830.8,878.7 2229.5,1710.1 H 30121.1"
         style="fill:#368fcf;fill-opacity:1;fill-rule:evenodd;stroke:none"
         id="path56" />
      <path
         d="m 30378.8,19228.1 c -40.9,-546.8 -163.2,-1070.9 -354.7,-1560.3 72.2,-48.9 143.8,-98.8 214.3,-149.8 h 4500.8 c 981.7,389 1830.8,878.7 2229.5,1710.1 h -6589.9"
         style="fill:#368fcf;fill-opacity:1;fill-rule:evenodd;stroke:none"
         id="path58" />
      <path
         d="m 19585.9,19627 c -2.6,577.6 91.3,1161.9 272.9,1710.1 H 9446.03 C 9844.63,20505.7 10693.8,20016 11675.5,19627 h 7910.4"
         style="fill:#368fcf;fill-opacity:1;fill-rule:evenodd;stroke:none"
         id="path60" />
      <path
         d="m 19823.5,17518 c 48.2,39 96.8,77.6 145.8,115.6 -199.3,499.1 -326.4,1035 -368.2,1594.5 h -6569.8 c 398.6,-831.4 1247.8,-1321.1 2229.5,-1710.1 h 4562.7"
         style="fill:#368fcf;fill-opacity:1;fill-rule:evenodd;stroke:none"
         id="path62" />
      <path
         d="m 21156.7,23446.1 c 798.6,803.5 1848.2,1357.4 3021.3,1534.1 10.8,152.7 25.5,304.8 45.2,455.5 10.5,81.2 24.4,179.8 44.1,286 -1647.8,-193.6 -3095.4,-1040.9 -4076.7,-2275.6 H 5860.73 C 6259.37,22614.7 7108.52,22125 8090.24,21736 H 20008.7 c 271.3,643 663.5,1222.5 1148,1710.1"
         style="fill:#368fcf;fill-opacity:1;fill-rule:evenodd;stroke:none"
         id="path64" />
    </g>
  </g>
</svg>
